<svg xmlns="http://www.w3.org/2000/svg" xmlns:xlink="http://www.w3.org/1999/xlink" width="500" zoomAndPan="magnify" viewBox="0 0 375 374.999991" height="500" preserveAspectRatio="xMidYMid meet" version="1.2"><defs><clipPath id="ed91bc1c3c"><path d="M 29.066406 199.855469 L 350.742188 199.855469 L 350.742188 236.929688 L 29.066406 236.929688 Z M 29.066406 199.855469 "/></clipPath></defs><g id="53b78d8b5f"><rect x="0" width="375" y="0" height="374.999991" style="fill:#ffffff;fill-opacity:1;stroke:none;"/><rect x="0" width="375" y="0" height="374.999991" style="fill:#ffffff;fill-opacity:1;stroke:none;"/><g style="fill:#3b3937;fill-opacity:1;"><g transform="translate(180.409797, 275.221256)"><path style="stroke:none" d="M 6.546875 0 L 6.546875 -1.8125 L 76.53125 -127.984375 L 39.09375 -127.984375 C 32.425781 -127.984375 27.148438 -127.195312 23.265625 -125.625 C 19.390625 -124.050781 16.570312 -121.414062 14.8125 -117.71875 C 13.0625 -114.019531 12.0625 -108.957031 11.8125 -102.53125 L 11.640625 -97.984375 L 9.8125 -97.984375 L 10.90625 -129.796875 L 97.078125 -129.796875 L 97.078125 -127.984375 L 27.09375 -1.8125 L 70.71875 -1.8125 C 77.144531 -1.8125 82.234375 -2.597656 85.984375 -4.171875 C 89.742188 -5.753906 92.53125 -8.394531 94.34375 -12.09375 C 96.164062 -15.789062 97.378906 -20.847656 97.984375 -27.265625 L 98.359375 -31.8125 L 100.171875 -31.8125 L 99.078125 0 Z M 6.546875 0 "/></g></g><g style="fill:#3b3937;fill-opacity:1;"><g transform="translate(90.215104, 212.195153)"><path style="stroke:none" d="M 28.90625 0 L 28.90625 -1.8125 L 33.09375 -1.8125 C 43.03125 -1.8125 48 -6.175781 48 -14.90625 L 48 -56.90625 L 15.640625 -118.34375 C 13.691406 -121.976562 11.804688 -124.492188 9.984375 -125.890625 C 8.171875 -127.285156 5.753906 -127.984375 2.734375 -127.984375 L -0.90625 -127.984375 L -0.90625 -129.796875 L 49.078125 -129.796875 L 49.078125 -127.984375 L 42.90625 -127.984375 C 37.332031 -127.984375 34.546875 -126.347656 34.546875 -123.078125 C 34.546875 -120.890625 35.753906 -117.375 38.171875 -112.53125 L 53.8125 -82.359375 C 56.351562 -77.503906 58.625 -73.015625 60.625 -68.890625 C 62.625 -64.773438 64.234375 -61.320312 65.453125 -58.53125 C 66.898438 -61.320312 68.679688 -64.835938 70.796875 -69.078125 C 72.921875 -73.328125 75.195312 -77.753906 77.625 -82.359375 L 91.4375 -109.078125 C 94.351562 -114.535156 95.8125 -118.71875 95.8125 -121.625 C 95.8125 -123.925781 94.835938 -125.5625 92.890625 -126.53125 C 90.953125 -127.5 87.925781 -127.984375 83.8125 -127.984375 L 76.53125 -127.984375 L 76.53125 -129.796875 L 115.4375 -129.796875 L 115.4375 -127.984375 L 110.890625 -127.984375 C 107.984375 -127.984375 105.46875 -126.953125 103.34375 -124.890625 C 101.226562 -122.828125 98.773438 -119.132812 95.984375 -113.8125 L 66.359375 -56.53125 L 66.359375 -14.90625 C 66.359375 -6.175781 71.328125 -1.8125 81.265625 -1.8125 L 85.4375 -1.8125 L 85.4375 0 Z M 28.90625 0 "/></g></g><g clip-rule="nonzero" clip-path="url(#ed91bc1c3c)"><path style=" stroke:none;fill-rule:nonzero;fill:#f4f4f4;fill-opacity:1;" d="M 29.066406 199.855469 L 350.703125 199.855469 L 350.703125 236.929688 L 29.066406 236.929688 Z M 29.066406 199.855469 "/></g><g style="fill:#3b3937;fill-opacity:1;"><g transform="translate(106.833813, 248.606489)"><path style="stroke:none" d="M 4.65625 0.421875 L 2.96875 -4.0625 L 1.28125 0.421875 L 0.078125 -5.140625 L 0.625 -5.140625 L 1.421875 -1.40625 L 2.96875 -5.4375 L 4.5 -1.40625 L 5.3125 -5.140625 L 5.84375 -5.140625 Z M 4.65625 0.421875 "/></g></g><g style="fill:#3b3937;fill-opacity:1;"><g transform="translate(118.570465, 248.606489)"><path style="stroke:none" d="M 3.625 0 L 0.5625 0 L 0.5625 -5.140625 L 3.625 -5.140625 L 3.625 -4.65625 L 1.09375 -4.65625 L 1.09375 -2.828125 L 3.546875 -2.828125 L 3.546875 -2.328125 L 1.09375 -2.328125 L 1.09375 -0.484375 L 3.625 -0.484375 Z M 3.625 0 "/></g></g><g style="fill:#3b3937;fill-opacity:1;"><g transform="translate(128.574225, 248.606489)"><path style="stroke:none" d="M 3.921875 -1.4375 C 3.921875 -1.226562 3.875 -1.023438 3.78125 -0.828125 C 3.6875 -0.640625 3.554688 -0.484375 3.390625 -0.359375 C 3.078125 -0.117188 2.660156 0 2.140625 0 L 0.5625 0 L 0.5625 -5.140625 L 1.953125 -5.140625 C 2.703125 -5.140625 3.191406 -4.910156 3.421875 -4.453125 C 3.503906 -4.285156 3.546875 -4.113281 3.546875 -3.9375 C 3.546875 -3.769531 3.535156 -3.640625 3.515625 -3.546875 C 3.484375 -3.441406 3.441406 -3.34375 3.390625 -3.25 C 3.273438 -3.050781 3.125 -2.910156 2.9375 -2.828125 C 3.238281 -2.753906 3.476562 -2.597656 3.65625 -2.359375 C 3.832031 -2.109375 3.921875 -1.800781 3.921875 -1.4375 Z M 3.015625 -3.859375 C 3.015625 -4.378906 2.660156 -4.640625 1.953125 -4.640625 L 1.09375 -4.640625 L 1.09375 -3.03125 L 2.109375 -3.03125 C 2.378906 -3.03125 2.597656 -3.097656 2.765625 -3.234375 C 2.929688 -3.367188 3.015625 -3.578125 3.015625 -3.859375 Z M 3.390625 -1.53125 C 3.390625 -1.6875 3.363281 -1.820312 3.3125 -1.9375 C 3.25 -2.050781 3.171875 -2.148438 3.078125 -2.234375 C 2.878906 -2.410156 2.644531 -2.5 2.375 -2.5 L 1.09375 -2.5 L 1.09375 -0.5 L 2.296875 -0.5 C 2.617188 -0.5 2.878906 -0.59375 3.078125 -0.78125 C 3.285156 -0.976562 3.390625 -1.226562 3.390625 -1.53125 Z M 3.390625 -1.53125 "/></g></g><g style="fill:#3b3937;fill-opacity:1;"><g transform="translate(138.464483, 248.606489)"><path style="stroke:none" d="M 2 -2.421875 C 0.945312 -2.671875 0.421875 -3.125 0.421875 -3.78125 C 0.421875 -4.257812 0.59375 -4.617188 0.9375 -4.859375 C 1.269531 -5.097656 1.664062 -5.21875 2.125 -5.21875 C 3.125 -5.21875 3.71875 -4.84375 3.90625 -4.09375 L 3.328125 -4.09375 C 3.222656 -4.539062 2.820312 -4.765625 2.125 -4.765625 C 1.625 -4.765625 1.273438 -4.617188 1.078125 -4.328125 C 1.003906 -4.210938 0.96875 -4.070312 0.96875 -3.90625 C 0.96875 -3.59375 1.140625 -3.347656 1.484375 -3.171875 C 1.640625 -3.085938 1.984375 -2.976562 2.515625 -2.84375 C 3.035156 -2.707031 3.414062 -2.554688 3.65625 -2.390625 C 3.976562 -2.160156 4.140625 -1.835938 4.140625 -1.421875 C 4.140625 -0.898438 3.9375 -0.503906 3.53125 -0.234375 C 3.1875 -0.015625 2.765625 0.09375 2.265625 0.09375 C 1.117188 0.09375 0.457031 -0.335938 0.28125 -1.203125 L 0.90625 -1.203125 C 1 -0.660156 1.453125 -0.390625 2.265625 -0.390625 C 2.835938 -0.390625 3.238281 -0.546875 3.46875 -0.859375 C 3.550781 -0.984375 3.59375 -1.15625 3.59375 -1.375 C 3.59375 -1.582031 3.507812 -1.753906 3.34375 -1.890625 C 3.113281 -2.085938 2.664062 -2.265625 2 -2.421875 Z M 2 -2.421875 "/></g></g><g style="fill:#3b3937;fill-opacity:1;"><g transform="translate(148.619589, 248.606489)"><path style="stroke:none" d="M 1.09375 0 L 0.5625 0 L 0.5625 -5.140625 L 1.09375 -5.140625 Z M 1.09375 0 "/></g></g><g style="fill:#3b3937;fill-opacity:1;"><g transform="translate(156.095912, 248.606489)"><path style="stroke:none" d="M 0.15625 -4.671875 L 0.15625 -5.15625 L 3.171875 -5.15625 L 3.171875 -4.671875 L 1.921875 -4.671875 L 1.921875 -0.015625 L 1.40625 -0.015625 L 1.40625 -4.671875 Z M 0.15625 -4.671875 "/></g></g><g style="fill:#3b3937;fill-opacity:1;"><g transform="translate(165.237022, 248.606489)"><path style="stroke:none" d="M 3.625 0 L 0.5625 0 L 0.5625 -5.140625 L 3.625 -5.140625 L 3.625 -4.65625 L 1.09375 -4.65625 L 1.09375 -2.828125 L 3.546875 -2.828125 L 3.546875 -2.328125 L 1.09375 -2.328125 L 1.09375 -0.484375 L 3.625 -0.484375 Z M 3.625 0 "/></g></g><g style="fill:#967f71;fill-opacity:1;"><g transform="translate(83.570857, 225.517118)"><path style="stroke:none" d="M 12.234375 1.125 C 11.941406 1.300781 11.625 1.394531 11.28125 1.40625 C 11.125 1.40625 10.96875 1.378906 10.8125 1.328125 C 10.476562 1.265625 10.207031 1.101562 10 0.84375 C 9.800781 0.59375 9.707031 0.304688 9.71875 -0.015625 C 9.71875 -0.390625 9.84375 -0.804688 10.09375 -1.265625 C 10.351562 -1.734375 10.695312 -2.222656 11.125 -2.734375 C 11.550781 -3.253906 12.03125 -3.773438 12.5625 -4.296875 C 13.09375 -4.828125 13.640625 -5.335938 14.203125 -5.828125 C 14.773438 -6.316406 15.328125 -6.769531 15.859375 -7.1875 C 15.953125 -7.257812 16.019531 -7.351562 16.0625 -7.46875 L 16.859375 -9.765625 C 16.898438 -9.890625 16.863281 -9.984375 16.75 -10.046875 C 16.632812 -10.109375 16.535156 -10.085938 16.453125 -9.984375 C 16.054688 -9.410156 15.625 -8.863281 15.15625 -8.34375 C 14.695312 -7.820312 14.207031 -7.375 13.6875 -7 C 13.164062 -6.625 12.625 -6.359375 12.0625 -6.203125 C 11.476562 -6.046875 10.890625 -6.035156 10.296875 -6.171875 C 9.703125 -6.304688 9.171875 -6.570312 8.703125 -6.96875 C 8.328125 -7.25 8.023438 -7.59375 7.796875 -8 C 7.578125 -8.414062 7.453125 -8.859375 7.421875 -9.328125 C 7.367188 -9.878906 7.421875 -10.441406 7.578125 -11.015625 C 7.742188 -11.597656 7.960938 -12.15625 8.234375 -12.6875 C 8.515625 -13.226562 8.800781 -13.71875 9.09375 -14.15625 C 9.394531 -14.601562 9.664062 -14.972656 9.90625 -15.265625 C 10.050781 -15.441406 10.117188 -15.597656 10.109375 -15.734375 C 10.109375 -15.867188 9.972656 -15.910156 9.703125 -15.859375 C 7.472656 -15.429688 5.441406 -14.546875 3.609375 -13.203125 C 3.304688 -12.960938 3.007812 -12.695312 2.71875 -12.40625 C 2.4375 -12.113281 2.195312 -11.800781 2 -11.46875 C 1.8125 -11.132812 1.691406 -10.785156 1.640625 -10.421875 C 1.597656 -10.066406 1.671875 -9.703125 1.859375 -9.328125 C 1.910156 -9.222656 1.914062 -9.113281 1.875 -9 C 1.84375 -8.894531 1.769531 -8.816406 1.65625 -8.765625 C 1.550781 -8.710938 1.445312 -8.707031 1.34375 -8.75 C 1.238281 -8.789062 1.160156 -8.859375 1.109375 -8.953125 C 0.742188 -9.703125 0.703125 -10.472656 0.984375 -11.265625 C 1.265625 -12.054688 1.859375 -12.832031 2.765625 -13.59375 C 3.253906 -14.007812 3.8125 -14.398438 4.4375 -14.765625 C 5.0625 -15.140625 5.695312 -15.460938 6.34375 -15.734375 C 7 -16.015625 7.625 -16.238281 8.21875 -16.40625 C 8.820312 -16.570312 9.351562 -16.660156 9.8125 -16.671875 C 10.28125 -16.691406 10.625 -16.617188 10.84375 -16.453125 C 11.007812 -16.335938 11.113281 -16.179688 11.15625 -15.984375 C 11.207031 -15.796875 11.191406 -15.613281 11.109375 -15.4375 C 11.097656 -15.382812 11.070312 -15.34375 11.03125 -15.3125 C 11.03125 -15.300781 10.925781 -15.171875 10.71875 -14.921875 C 10.519531 -14.679688 10.269531 -14.351562 9.96875 -13.9375 C 9.675781 -13.53125 9.390625 -13.070312 9.109375 -12.5625 C 8.835938 -12.050781 8.613281 -11.519531 8.4375 -10.96875 C 8.269531 -10.425781 8.207031 -9.898438 8.25 -9.390625 C 8.3125 -8.648438 8.640625 -8.0625 9.234375 -7.625 C 9.585938 -7.320312 9.992188 -7.113281 10.453125 -7 C 10.921875 -6.882812 11.382812 -6.894531 11.84375 -7.03125 C 12.351562 -7.15625 12.847656 -7.398438 13.328125 -7.765625 C 13.804688 -8.128906 14.257812 -8.5625 14.6875 -9.0625 C 15.125 -9.570312 15.53125 -10.101562 15.90625 -10.65625 C 16.28125 -11.21875 16.613281 -11.773438 16.90625 -12.328125 C 17.207031 -12.878906 17.46875 -13.378906 17.6875 -13.828125 C 17.90625 -14.273438 18.070312 -14.632812 18.1875 -14.90625 C 18.3125 -15.175781 18.375 -15.316406 18.375 -15.328125 C 18.414062 -15.421875 18.484375 -15.488281 18.578125 -15.53125 C 18.679688 -15.582031 18.785156 -15.59375 18.890625 -15.5625 C 19.003906 -15.53125 19.085938 -15.46875 19.140625 -15.375 C 19.191406 -15.28125 19.203125 -15.179688 19.171875 -15.078125 C 19.160156 -15.003906 19.109375 -14.785156 19.015625 -14.421875 C 18.921875 -14.054688 18.796875 -13.578125 18.640625 -12.984375 C 18.484375 -12.390625 18.296875 -11.71875 18.078125 -10.96875 C 17.859375 -10.226562 17.613281 -9.445312 17.34375 -8.625 C 17.3125 -8.550781 17.328125 -8.492188 17.390625 -8.453125 C 17.453125 -8.410156 17.507812 -8.410156 17.5625 -8.453125 C 17.90625 -8.691406 18.269531 -8.894531 18.65625 -9.0625 C 18.757812 -9.09375 18.859375 -9.078125 18.953125 -9.015625 C 19.054688 -8.953125 19.125 -8.867188 19.15625 -8.765625 C 19.1875 -8.660156 19.175781 -8.554688 19.125 -8.453125 C 19.070312 -8.347656 18.988281 -8.28125 18.875 -8.25 C 18.164062 -7.90625 17.503906 -7.472656 16.890625 -6.953125 C 16.785156 -6.867188 16.707031 -6.769531 16.65625 -6.65625 C 16.34375 -5.789062 16.015625 -4.941406 15.671875 -4.109375 C 15.328125 -3.285156 14.96875 -2.519531 14.59375 -1.8125 C 14.21875 -1.101562 13.832031 -0.5 13.4375 0 C 13.039062 0.507812 12.640625 0.882812 12.234375 1.125 Z M 11.828125 0.40625 C 12.210938 0.175781 12.59375 -0.203125 12.96875 -0.734375 C 13.351562 -1.273438 13.734375 -1.929688 14.109375 -2.703125 C 14.492188 -3.472656 14.863281 -4.304688 15.21875 -5.203125 C 15.25 -5.273438 15.226562 -5.335938 15.15625 -5.390625 C 15.082031 -5.441406 15.007812 -5.4375 14.9375 -5.375 C 14.40625 -4.914062 13.878906 -4.4375 13.359375 -3.9375 C 12.835938 -3.4375 12.363281 -2.941406 11.9375 -2.453125 C 11.519531 -1.972656 11.1875 -1.519531 10.9375 -1.09375 C 10.6875 -0.675781 10.554688 -0.316406 10.546875 -0.015625 C 10.546875 0.0859375 10.570312 0.1875 10.625 0.28125 C 10.6875 0.382812 10.832031 0.46875 11.0625 0.53125 C 11.332031 0.601562 11.585938 0.5625 11.828125 0.40625 Z M 11.828125 0.40625 "/></g></g><g style="fill:#967f71;fill-opacity:1;"><g transform="translate(101.582528, 225.517118)"><path style="stroke:none" d="M 13.890625 -4.5 C 13.972656 -4.425781 14.015625 -4.328125 14.015625 -4.203125 C 14.015625 -4.085938 13.976562 -3.988281 13.90625 -3.90625 C 13.5 -3.488281 13 -3.046875 12.40625 -2.578125 C 11.8125 -2.117188 11.164062 -1.679688 10.46875 -1.265625 C 9.769531 -0.859375 9.054688 -0.53125 8.328125 -0.28125 C 7.597656 -0.03125 6.898438 0.09375 6.234375 0.09375 L 6.203125 0.09375 C 5.273438 0.125 4.5 -0.191406 3.875 -0.859375 C 3.601562 -1.160156 3.441406 -1.507812 3.390625 -1.90625 C 3.367188 -2.050781 3.285156 -2.144531 3.140625 -2.1875 C 2.992188 -2.226562 2.867188 -2.195312 2.765625 -2.09375 C 2.441406 -1.75 2.101562 -1.445312 1.75 -1.1875 C 1.40625 -0.925781 1.0625 -0.75 0.71875 -0.65625 C 0.375 -0.5625 0.0625 -0.597656 -0.21875 -0.765625 C -0.5 -0.929688 -0.648438 -1.175781 -0.671875 -1.5 C -0.703125 -1.832031 -0.660156 -2.195312 -0.546875 -2.59375 C -0.429688 -2.988281 -0.285156 -3.367188 -0.109375 -3.734375 C 0.0664062 -4.097656 0.222656 -4.398438 0.359375 -4.640625 C 0.421875 -4.734375 0.503906 -4.789062 0.609375 -4.8125 C 0.710938 -4.84375 0.8125 -4.832031 0.90625 -4.78125 C 1.007812 -4.726562 1.078125 -4.648438 1.109375 -4.546875 C 1.140625 -4.441406 1.132812 -4.332031 1.09375 -4.21875 C 0.820312 -3.757812 0.609375 -3.332031 0.453125 -2.9375 C 0.296875 -2.539062 0.195312 -2.207031 0.15625 -1.9375 C 0.113281 -1.675781 0.128906 -1.523438 0.203125 -1.484375 C 0.347656 -1.398438 0.554688 -1.429688 0.828125 -1.578125 C 1.097656 -1.734375 1.398438 -1.96875 1.734375 -2.28125 C 2.078125 -2.59375 2.425781 -2.957031 2.78125 -3.375 C 3.132812 -3.800781 3.460938 -4.234375 3.765625 -4.671875 C 3.828125 -4.765625 3.90625 -4.820312 4 -4.84375 C 4.101562 -4.863281 4.203125 -4.851562 4.296875 -4.8125 C 4.398438 -4.757812 4.46875 -4.6875 4.5 -4.59375 C 4.539062 -4.5 4.546875 -4.398438 4.515625 -4.296875 C 4.460938 -4.160156 4.40625 -3.96875 4.34375 -3.71875 C 4.28125 -3.46875 4.234375 -3.195312 4.203125 -2.90625 C 4.171875 -2.613281 4.171875 -2.332031 4.203125 -2.0625 C 4.242188 -1.789062 4.335938 -1.578125 4.484375 -1.421875 C 4.960938 -0.941406 5.535156 -0.710938 6.203125 -0.734375 L 6.234375 -0.734375 C 6.835938 -0.734375 7.472656 -0.851562 8.140625 -1.09375 C 8.804688 -1.34375 9.460938 -1.660156 10.109375 -2.046875 C 10.765625 -2.429688 11.367188 -2.835938 11.921875 -3.265625 C 12.472656 -3.703125 12.925781 -4.109375 13.28125 -4.484375 C 13.363281 -4.566406 13.460938 -4.613281 13.578125 -4.625 C 13.703125 -4.625 13.804688 -4.582031 13.890625 -4.5 Z M 13.890625 -4.5 "/></g></g><g style="fill:#967f71;fill-opacity:1;"><g transform="translate(114.811348, 225.517118)"><path style="stroke:none" d="M 11.015625 -4.109375 C 11.097656 -4.023438 11.140625 -3.925781 11.140625 -3.8125 C 11.140625 -3.6875 11.097656 -3.582031 11.015625 -3.5 C 10.972656 -3.46875 10.8125 -3.320312 10.53125 -3.0625 C 10.25 -2.8125 9.878906 -2.507812 9.421875 -2.15625 C 8.960938 -1.800781 8.4375 -1.445312 7.84375 -1.09375 C 7.257812 -0.75 6.644531 -0.457031 6 -0.21875 C 5.363281 0.0078125 4.71875 0.125 4.0625 0.125 C 3.664062 0.125 3.28125 0.0703125 2.90625 -0.03125 C 2.21875 -0.238281 1.640625 -0.65625 1.171875 -1.28125 C 0.710938 -1.914062 0.375 -2.738281 0.15625 -3.75 C 0.132812 -3.800781 0.125 -3.851562 0.125 -3.90625 C 0.03125 -4.425781 -0.03125 -4.953125 -0.0625 -5.484375 C -0.09375 -6.179688 -0.078125 -6.90625 -0.015625 -7.65625 C 0.0351562 -8.414062 0.128906 -9.160156 0.265625 -9.890625 C 0.410156 -10.617188 0.59375 -11.296875 0.8125 -11.921875 C 1.03125 -12.546875 1.273438 -13.070312 1.546875 -13.5 C 1.816406 -13.925781 2.117188 -14.21875 2.453125 -14.375 C 2.671875 -14.46875 2.898438 -14.476562 3.140625 -14.40625 C 3.390625 -14.34375 3.59375 -14.21875 3.75 -14.03125 C 3.976562 -13.78125 4.097656 -13.421875 4.109375 -12.953125 C 4.128906 -12.492188 4.078125 -11.96875 3.953125 -11.375 C 3.828125 -10.78125 3.648438 -10.148438 3.421875 -9.484375 C 3.203125 -8.828125 2.957031 -8.175781 2.6875 -7.53125 C 2.414062 -6.894531 2.148438 -6.296875 1.890625 -5.734375 C 1.640625 -5.179688 1.425781 -4.722656 1.25 -4.359375 C 1.070312 -4.003906 1.039062 -3.644531 1.15625 -3.28125 C 1.3125 -2.726562 1.546875 -2.222656 1.859375 -1.765625 C 2.179688 -1.316406 2.613281 -1.003906 3.15625 -0.828125 C 3.65625 -0.679688 4.175781 -0.65625 4.71875 -0.75 C 5.269531 -0.84375 5.816406 -1.015625 6.359375 -1.265625 C 6.898438 -1.515625 7.410156 -1.796875 7.890625 -2.109375 C 8.378906 -2.429688 8.8125 -2.738281 9.1875 -3.03125 C 9.5625 -3.332031 9.859375 -3.582031 10.078125 -3.78125 C 10.296875 -3.988281 10.410156 -4.097656 10.421875 -4.109375 C 10.503906 -4.179688 10.601562 -4.21875 10.71875 -4.21875 C 10.820312 -4.21875 10.921875 -4.179688 11.015625 -4.109375 Z M 0.828125 -5.734375 C 0.835938 -5.648438 0.875 -5.59375 0.9375 -5.5625 C 1.007812 -5.539062 1.066406 -5.5625 1.109375 -5.625 C 1.242188 -5.851562 1.398438 -6.1875 1.578125 -6.625 C 1.765625 -7.0625 1.953125 -7.554688 2.140625 -8.109375 C 2.335938 -8.660156 2.515625 -9.222656 2.671875 -9.796875 C 2.828125 -10.378906 2.957031 -10.925781 3.0625 -11.4375 C 3.175781 -11.945312 3.242188 -12.382812 3.265625 -12.75 C 3.285156 -13.113281 3.242188 -13.347656 3.140625 -13.453125 C 3.035156 -13.554688 2.941406 -13.609375 2.859375 -13.609375 C 2.828125 -13.609375 2.796875 -13.601562 2.765625 -13.59375 C 2.609375 -13.519531 2.425781 -13.289062 2.21875 -12.90625 C 2.007812 -12.53125 1.800781 -12.046875 1.59375 -11.453125 C 1.394531 -10.867188 1.21875 -10.234375 1.0625 -9.546875 C 0.90625 -8.867188 0.800781 -8.195312 0.75 -7.53125 C 0.695312 -6.863281 0.722656 -6.265625 0.828125 -5.734375 Z M 0.828125 -5.734375 "/></g></g><g style="fill:#967f71;fill-opacity:1;"><g transform="translate(125.352821, 225.517118)"><path style="stroke:none" d="M 10.375 -4.3125 C 10.457031 -4.238281 10.5 -4.144531 10.5 -4.03125 C 10.5 -3.914062 10.460938 -3.816406 10.390625 -3.734375 C 10.335938 -3.703125 10.171875 -3.550781 9.890625 -3.28125 C 9.609375 -3.007812 9.234375 -2.691406 8.765625 -2.328125 C 8.304688 -1.960938 7.773438 -1.597656 7.171875 -1.234375 C 6.578125 -0.867188 5.941406 -0.566406 5.265625 -0.328125 C 4.585938 -0.0859375 3.910156 0.03125 3.234375 0.03125 C 2.253906 0.0390625 1.375 -0.242188 0.59375 -0.828125 C 0.269531 -1.066406 0.0507812 -1.34375 -0.0625 -1.65625 C -0.175781 -1.976562 -0.222656 -2.3125 -0.203125 -2.65625 C -0.191406 -3 -0.144531 -3.316406 -0.0625 -3.609375 C 0.0195312 -3.910156 0.0976562 -4.15625 0.171875 -4.34375 C 0.253906 -4.539062 0.300781 -4.648438 0.3125 -4.671875 C 0.382812 -4.765625 0.472656 -4.828125 0.578125 -4.859375 C 0.679688 -4.890625 0.78125 -4.878906 0.875 -4.828125 C 0.988281 -4.773438 1.0625 -4.695312 1.09375 -4.59375 C 1.132812 -4.488281 1.128906 -4.382812 1.078125 -4.28125 C 1.078125 -4.269531 1.039062 -4.195312 0.96875 -4.0625 C 0.90625 -3.925781 0.835938 -3.742188 0.765625 -3.515625 C 0.703125 -3.296875 0.65625 -3.0625 0.625 -2.8125 C 0.601562 -2.5625 0.625 -2.316406 0.6875 -2.078125 C 0.75 -1.847656 0.882812 -1.65625 1.09375 -1.5 C 1.582031 -1.132812 2.097656 -0.914062 2.640625 -0.84375 C 3.191406 -0.769531 3.742188 -0.800781 4.296875 -0.9375 C 4.859375 -1.070312 5.40625 -1.269531 5.9375 -1.53125 C 6.46875 -1.789062 6.960938 -2.078125 7.421875 -2.390625 C 7.878906 -2.703125 8.285156 -3.003906 8.640625 -3.296875 C 8.992188 -3.585938 9.269531 -3.828125 9.46875 -4.015625 C 9.664062 -4.203125 9.769531 -4.300781 9.78125 -4.3125 C 9.863281 -4.40625 9.957031 -4.453125 10.0625 -4.453125 C 10.175781 -4.453125 10.28125 -4.40625 10.375 -4.3125 Z M 0.140625 -5.578125 C -0.0664062 -5.578125 -0.195312 -5.6875 -0.25 -5.90625 C -0.3125 -6.113281 -0.242188 -6.273438 -0.046875 -6.390625 C 0.253906 -6.535156 0.519531 -6.726562 0.75 -6.96875 C 0.832031 -7.0625 0.929688 -7.109375 1.046875 -7.109375 C 1.160156 -7.109375 1.257812 -7.066406 1.34375 -6.984375 C 1.425781 -6.898438 1.46875 -6.800781 1.46875 -6.6875 C 1.476562 -6.582031 1.441406 -6.488281 1.359375 -6.40625 C 1.054688 -6.09375 0.722656 -5.835938 0.359375 -5.640625 C 0.285156 -5.597656 0.210938 -5.578125 0.140625 -5.578125 Z M 0.140625 -5.578125 "/></g></g><g style="fill:#967f71;fill-opacity:1;"><g transform="translate(135.174461, 225.517118)"><path style="stroke:none" d="M 13.375 -3.890625 C 13.445312 -3.804688 13.484375 -3.703125 13.484375 -3.578125 C 13.472656 -3.460938 13.425781 -3.367188 13.34375 -3.296875 C 13.3125 -3.265625 13.15625 -3.128906 12.875 -2.890625 C 12.59375 -2.660156 12.21875 -2.382812 11.75 -2.0625 C 11.289062 -1.738281 10.769531 -1.425781 10.1875 -1.125 C 9.601562 -0.820312 8.988281 -0.578125 8.34375 -0.390625 C 7.695312 -0.210938 7.050781 -0.144531 6.40625 -0.1875 C 5.757812 -0.226562 5.144531 -0.441406 4.5625 -0.828125 C 4.113281 -1.117188 3.753906 -1.492188 3.484375 -1.953125 C 3.410156 -2.078125 3.296875 -2.144531 3.140625 -2.15625 C 2.984375 -2.164062 2.863281 -2.109375 2.78125 -1.984375 C 2.550781 -1.628906 2.296875 -1.296875 2.015625 -0.984375 C 1.734375 -0.671875 1.445312 -0.414062 1.15625 -0.21875 C 0.875 -0.03125 0.601562 0.0664062 0.34375 0.078125 L 0.3125 0.078125 C 0.125 0.0664062 -0.0507812 0.0078125 -0.21875 -0.09375 C -0.382812 -0.207031 -0.503906 -0.359375 -0.578125 -0.546875 C -0.898438 -1.347656 -0.851562 -2.125 -0.4375 -2.875 C -0.0820312 -3.613281 0.410156 -4.238281 1.046875 -4.75 C 1.679688 -5.269531 2.398438 -5.628906 3.203125 -5.828125 C 3.359375 -5.867188 3.488281 -5.832031 3.59375 -5.71875 C 3.71875 -5.59375 3.757812 -5.453125 3.71875 -5.296875 C 3.65625 -5.148438 3.546875 -5.054688 3.390625 -5.015625 C 2.722656 -4.847656 2.117188 -4.546875 1.578125 -4.109375 C 1.046875 -3.679688 0.632812 -3.15625 0.34375 -2.53125 C 0.0390625 -2.019531 -0.015625 -1.484375 0.171875 -0.921875 C 0.234375 -0.816406 0.28125 -0.765625 0.3125 -0.765625 C 0.414062 -0.703125 0.5625 -0.769531 0.75 -0.96875 C 0.945312 -1.164062 1.164062 -1.445312 1.40625 -1.8125 C 1.65625 -2.175781 1.898438 -2.570312 2.140625 -3 C 2.378906 -3.4375 2.59375 -3.863281 2.78125 -4.28125 C 2.863281 -4.476562 3.015625 -4.5625 3.234375 -4.53125 C 3.429688 -4.5 3.546875 -4.378906 3.578125 -4.171875 C 3.578125 -4.160156 3.597656 -4.054688 3.640625 -3.859375 C 3.691406 -3.660156 3.769531 -3.414062 3.875 -3.125 C 3.976562 -2.84375 4.125 -2.554688 4.3125 -2.265625 C 4.5 -1.972656 4.738281 -1.726562 5.03125 -1.53125 C 5.519531 -1.207031 6.046875 -1.035156 6.609375 -1.015625 C 7.179688 -0.992188 7.753906 -1.078125 8.328125 -1.265625 C 8.910156 -1.453125 9.460938 -1.6875 9.984375 -1.96875 C 10.515625 -2.257812 10.988281 -2.550781 11.40625 -2.84375 C 11.820312 -3.144531 12.148438 -3.394531 12.390625 -3.59375 C 12.640625 -3.800781 12.769531 -3.910156 12.78125 -3.921875 C 12.863281 -3.992188 12.960938 -4.023438 13.078125 -4.015625 C 13.203125 -4.015625 13.300781 -3.972656 13.375 -3.890625 Z M 13.375 -3.890625 "/></g></g><g style="fill:#967f71;fill-opacity:1;"><g transform="translate(148.09936, 225.517118)"><path style="stroke:none" d=""/></g></g><g style="fill:#967f71;fill-opacity:1;"><g transform="translate(154.049932, 225.517118)"><path style="stroke:none" d="M 19.84375 -15.796875 C 20.082031 -15.554688 20.273438 -15.234375 20.421875 -14.828125 C 20.578125 -14.421875 20.609375 -13.914062 20.515625 -13.3125 C 20.421875 -12.707031 20.125 -11.984375 19.625 -11.140625 C 19.25 -10.484375 18.765625 -9.875 18.171875 -9.3125 C 17.578125 -8.75 16.914062 -8.226562 16.1875 -7.75 C 15.46875 -7.28125 14.710938 -6.851562 13.921875 -6.46875 C 13.140625 -6.09375 12.363281 -5.765625 11.59375 -5.484375 C 10.820312 -5.210938 10.09375 -4.992188 9.40625 -4.828125 C 9.09375 -4.753906 8.90625 -4.5625 8.84375 -4.25 C 8.664062 -3.457031 8.472656 -2.734375 8.265625 -2.078125 C 8.054688 -1.429688 7.8125 -0.898438 7.53125 -0.484375 C 7.257812 -0.0664062 6.929688 0.1875 6.546875 0.28125 C 6.378906 0.34375 6.238281 0.3125 6.125 0.1875 C 6.019531 0.0703125 5.988281 -0.0625 6.03125 -0.21875 C 6.070312 -0.382812 6.175781 -0.484375 6.34375 -0.515625 C 6.550781 -0.578125 6.75 -0.765625 6.9375 -1.078125 C 7.125 -1.398438 7.296875 -1.8125 7.453125 -2.3125 C 7.617188 -2.820312 7.769531 -3.363281 7.90625 -3.9375 C 7.9375 -4.070312 7.910156 -4.195312 7.828125 -4.3125 C 7.742188 -4.425781 7.628906 -4.484375 7.484375 -4.484375 L 7.0625 -4.484375 C 6.925781 -4.484375 6.800781 -4.488281 6.6875 -4.5 C 6.0625 -4.5625 5.675781 -4.785156 5.53125 -5.171875 C 5.457031 -5.367188 5.457031 -5.566406 5.53125 -5.765625 C 5.613281 -5.960938 5.71875 -6.132812 5.84375 -6.28125 C 5.96875 -6.4375 6.066406 -6.550781 6.140625 -6.625 C 6.222656 -6.695312 6.320312 -6.734375 6.4375 -6.734375 C 6.550781 -6.734375 6.648438 -6.695312 6.734375 -6.625 C 6.816406 -6.539062 6.859375 -6.4375 6.859375 -6.3125 C 6.859375 -6.195312 6.816406 -6.097656 6.734375 -6.015625 C 6.546875 -5.828125 6.425781 -5.6875 6.375 -5.59375 C 6.332031 -5.5 6.3125 -5.445312 6.3125 -5.4375 C 6.726562 -5.332031 7.15625 -5.300781 7.59375 -5.34375 C 7.832031 -5.351562 8 -5.390625 8.09375 -5.453125 C 8.1875 -5.523438 8.242188 -5.601562 8.265625 -5.6875 C 8.285156 -5.769531 8.300781 -5.832031 8.3125 -5.875 C 8.351562 -6.019531 8.382812 -6.164062 8.40625 -6.3125 C 8.4375 -6.457031 8.46875 -6.597656 8.5 -6.734375 C 8.664062 -7.597656 8.835938 -8.421875 9.015625 -9.203125 C 9.191406 -9.992188 9.382812 -10.695312 9.59375 -11.3125 C 9.800781 -11.9375 10.039062 -12.445312 10.3125 -12.84375 C 10.582031 -13.238281 10.90625 -13.484375 11.28125 -13.578125 C 11.394531 -13.609375 11.5 -13.59375 11.59375 -13.53125 C 11.695312 -13.46875 11.765625 -13.382812 11.796875 -13.28125 C 11.816406 -13.164062 11.796875 -13.054688 11.734375 -12.953125 C 11.671875 -12.859375 11.585938 -12.796875 11.484375 -12.765625 C 11.242188 -12.703125 11.019531 -12.472656 10.8125 -12.078125 C 10.601562 -11.679688 10.410156 -11.175781 10.234375 -10.5625 C 10.054688 -9.957031 9.890625 -9.304688 9.734375 -8.609375 C 9.585938 -7.910156 9.445312 -7.234375 9.3125 -6.578125 C 9.28125 -6.429688 9.253906 -6.285156 9.234375 -6.140625 C 9.222656 -5.953125 9.257812 -5.832031 9.34375 -5.78125 C 9.425781 -5.738281 9.503906 -5.722656 9.578125 -5.734375 C 10.367188 -5.941406 11.210938 -6.226562 12.109375 -6.59375 C 13.015625 -6.957031 13.90625 -7.382812 14.78125 -7.875 C 15.65625 -8.375 16.453125 -8.929688 17.171875 -9.546875 C 17.898438 -10.160156 18.472656 -10.828125 18.890625 -11.546875 C 19.890625 -13.234375 20.007812 -14.453125 19.25 -15.203125 C 18.863281 -15.578125 18.289062 -15.832031 17.53125 -15.96875 C 16.769531 -16.113281 15.890625 -16.148438 14.890625 -16.078125 C 13.890625 -16.015625 12.828125 -15.847656 11.703125 -15.578125 C 10.585938 -15.316406 9.472656 -14.960938 8.359375 -14.515625 C 7.242188 -14.078125 6.195312 -13.554688 5.21875 -12.953125 C 4.820312 -12.710938 4.390625 -12.410156 3.921875 -12.046875 C 3.460938 -11.691406 3.035156 -11.289062 2.640625 -10.84375 C 2.242188 -10.40625 1.953125 -9.929688 1.765625 -9.421875 C 1.585938 -8.921875 1.585938 -8.394531 1.765625 -7.84375 C 1.796875 -7.738281 1.78125 -7.632812 1.71875 -7.53125 C 1.664062 -7.425781 1.582031 -7.351562 1.46875 -7.3125 C 1.363281 -7.28125 1.257812 -7.289062 1.15625 -7.34375 C 1.0625 -7.394531 0.988281 -7.476562 0.9375 -7.59375 C 0.632812 -8.613281 0.8125 -9.644531 1.46875 -10.6875 C 2.132812 -11.726562 3.238281 -12.726562 4.78125 -13.6875 C 5.582031 -14.164062 6.453125 -14.601562 7.390625 -15 C 8.328125 -15.394531 9.289062 -15.738281 10.28125 -16.03125 C 11.269531 -16.332031 12.242188 -16.554688 13.203125 -16.703125 C 14.171875 -16.859375 15.082031 -16.929688 15.9375 -16.921875 C 16.800781 -16.921875 17.566406 -16.832031 18.234375 -16.65625 C 18.910156 -16.476562 19.445312 -16.191406 19.84375 -15.796875 Z M 19.84375 -15.796875 "/></g></g><g style="fill:#967f71;fill-opacity:1;"><g transform="translate(167.982587, 225.517118)"><path style="stroke:none" d="M 10.375 -4.3125 C 10.457031 -4.238281 10.5 -4.144531 10.5 -4.03125 C 10.5 -3.914062 10.460938 -3.816406 10.390625 -3.734375 C 10.335938 -3.703125 10.171875 -3.550781 9.890625 -3.28125 C 9.609375 -3.007812 9.234375 -2.691406 8.765625 -2.328125 C 8.304688 -1.960938 7.773438 -1.597656 7.171875 -1.234375 C 6.578125 -0.867188 5.941406 -0.566406 5.265625 -0.328125 C 4.585938 -0.0859375 3.910156 0.03125 3.234375 0.03125 C 2.253906 0.0390625 1.375 -0.242188 0.59375 -0.828125 C 0.269531 -1.066406 0.0507812 -1.34375 -0.0625 -1.65625 C -0.175781 -1.976562 -0.222656 -2.3125 -0.203125 -2.65625 C -0.191406 -3 -0.144531 -3.316406 -0.0625 -3.609375 C 0.0195312 -3.910156 0.0976562 -4.15625 0.171875 -4.34375 C 0.253906 -4.539062 0.300781 -4.648438 0.3125 -4.671875 C 0.382812 -4.765625 0.472656 -4.828125 0.578125 -4.859375 C 0.679688 -4.890625 0.78125 -4.878906 0.875 -4.828125 C 0.988281 -4.773438 1.0625 -4.695312 1.09375 -4.59375 C 1.132812 -4.488281 1.128906 -4.382812 1.078125 -4.28125 C 1.078125 -4.269531 1.039062 -4.195312 0.96875 -4.0625 C 0.90625 -3.925781 0.835938 -3.742188 0.765625 -3.515625 C 0.703125 -3.296875 0.65625 -3.0625 0.625 -2.8125 C 0.601562 -2.5625 0.625 -2.316406 0.6875 -2.078125 C 0.75 -1.847656 0.882812 -1.65625 1.09375 -1.5 C 1.582031 -1.132812 2.097656 -0.914062 2.640625 -0.84375 C 3.191406 -0.769531 3.742188 -0.800781 4.296875 -0.9375 C 4.859375 -1.070312 5.40625 -1.269531 5.9375 -1.53125 C 6.46875 -1.789062 6.960938 -2.078125 7.421875 -2.390625 C 7.878906 -2.703125 8.285156 -3.003906 8.640625 -3.296875 C 8.992188 -3.585938 9.269531 -3.828125 9.46875 -4.015625 C 9.664062 -4.203125 9.769531 -4.300781 9.78125 -4.3125 C 9.863281 -4.40625 9.957031 -4.453125 10.0625 -4.453125 C 10.175781 -4.453125 10.28125 -4.40625 10.375 -4.3125 Z M 0.140625 -5.578125 C -0.0664062 -5.578125 -0.195312 -5.6875 -0.25 -5.90625 C -0.3125 -6.113281 -0.242188 -6.273438 -0.046875 -6.390625 C 0.253906 -6.535156 0.519531 -6.726562 0.75 -6.96875 C 0.832031 -7.0625 0.929688 -7.109375 1.046875 -7.109375 C 1.160156 -7.109375 1.257812 -7.066406 1.34375 -6.984375 C 1.425781 -6.898438 1.46875 -6.800781 1.46875 -6.6875 C 1.476562 -6.582031 1.441406 -6.488281 1.359375 -6.40625 C 1.054688 -6.09375 0.722656 -5.835938 0.359375 -5.640625 C 0.285156 -5.597656 0.210938 -5.578125 0.140625 -5.578125 Z M 0.140625 -5.578125 "/></g></g><g style="fill:#967f71;fill-opacity:1;"><g transform="translate(177.804226, 225.517118)"><path style="stroke:none" d="M 13.203125 -4.171875 C 13.273438 -4.085938 13.3125 -3.992188 13.3125 -3.890625 C 13.3125 -3.773438 13.269531 -3.671875 13.1875 -3.578125 C 12.5 -2.929688 11.71875 -2.414062 10.84375 -2.03125 C 9.976562 -1.644531 9.082031 -1.351562 8.15625 -1.15625 C 7.238281 -0.96875 6.347656 -0.832031 5.484375 -0.75 C 4.628906 -0.675781 3.863281 -0.625 3.1875 -0.59375 C 2.988281 -0.582031 2.800781 -0.570312 2.625 -0.5625 C 2.457031 -0.550781 2.289062 -0.539062 2.125 -0.53125 C 2.019531 -0.507812 1.914062 -0.5 1.8125 -0.5 C 1.6875 -0.5 1.582031 -0.535156 1.5 -0.609375 C 1.425781 -0.679688 1.382812 -0.773438 1.375 -0.890625 C 1.363281 -1.003906 1.394531 -1.101562 1.46875 -1.1875 C 1.539062 -1.269531 1.640625 -1.316406 1.765625 -1.328125 C 1.847656 -1.335938 1.9375 -1.347656 2.03125 -1.359375 C 2.414062 -1.410156 2.753906 -1.5625 3.046875 -1.8125 C 3.347656 -2.070312 3.550781 -2.390625 3.65625 -2.765625 C 3.738281 -3.210938 3.5 -3.550781 2.9375 -3.78125 C 2.8125 -3.832031 2.664062 -3.804688 2.5 -3.703125 C 2.34375 -3.609375 2.203125 -3.507812 2.078125 -3.40625 C 1.316406 -2.601562 0.707031 -1.707031 0.25 -0.71875 C 0.238281 -0.695312 0.234375 -0.671875 0.234375 -0.640625 C 0.0664062 0.296875 -0.109375 1.222656 -0.296875 2.140625 C -0.484375 3.066406 -0.679688 3.910156 -0.890625 4.671875 C -1.109375 5.441406 -1.328125 6.070312 -1.546875 6.5625 C -1.773438 7.050781 -2 7.335938 -2.21875 7.421875 C -2.28125 7.441406 -2.351562 7.453125 -2.4375 7.453125 C -2.601562 7.453125 -2.75 7.394531 -2.875 7.28125 C -3.03125 7.132812 -3.097656 6.851562 -3.078125 6.4375 C -3.054688 6.03125 -2.96875 5.53125 -2.8125 4.9375 C -2.664062 4.351562 -2.472656 3.722656 -2.234375 3.046875 C -2.003906 2.378906 -1.742188 1.703125 -1.453125 1.015625 C -1.171875 0.335938 -0.882812 -0.289062 -0.59375 -0.875 C -0.476562 -1.507812 -0.367188 -2.15625 -0.265625 -2.8125 C -0.160156 -3.46875 -0.0625 -4.113281 0.03125 -4.75 C 0.0390625 -4.925781 0.125 -5.046875 0.28125 -5.109375 C 0.4375 -5.171875 0.578125 -5.148438 0.703125 -5.046875 C 0.828125 -4.929688 0.878906 -4.796875 0.859375 -4.640625 C 0.796875 -4.203125 0.726562 -3.742188 0.65625 -3.265625 C 0.644531 -3.210938 0.65625 -3.179688 0.6875 -3.171875 C 0.726562 -3.160156 0.765625 -3.175781 0.796875 -3.21875 C 1.679688 -4.414062 2.5 -4.863281 3.25 -4.5625 C 3.675781 -4.4375 4.003906 -4.1875 4.234375 -3.8125 C 4.472656 -3.445312 4.554688 -3.050781 4.484375 -2.625 C 4.421875 -2.28125 4.285156 -1.972656 4.078125 -1.703125 C 4.046875 -1.648438 4.039062 -1.597656 4.0625 -1.546875 C 4.082031 -1.503906 4.113281 -1.484375 4.15625 -1.484375 C 4.8125 -1.523438 5.515625 -1.59375 6.265625 -1.6875 C 7.015625 -1.789062 7.769531 -1.9375 8.53125 -2.125 C 9.300781 -2.320312 10.035156 -2.582031 10.734375 -2.90625 C 11.429688 -3.238281 12.054688 -3.664062 12.609375 -4.1875 C 12.691406 -4.269531 12.789062 -4.3125 12.90625 -4.3125 C 13.019531 -4.300781 13.117188 -4.253906 13.203125 -4.171875 Z M -2.203125 6.078125 C -1.878906 5.160156 -1.617188 4.226562 -1.421875 3.28125 C -1.753906 4.195312 -2.015625 5.128906 -2.203125 6.078125 Z M -2.203125 6.078125 "/></g></g><g style="fill:#967f71;fill-opacity:1;"><g transform="translate(190.409194, 225.517118)"><path style="stroke:none" d="M 13.21875 -3.796875 C 13.300781 -3.722656 13.335938 -3.625 13.328125 -3.5 C 13.328125 -3.382812 13.285156 -3.285156 13.203125 -3.203125 C 12.609375 -2.640625 11.929688 -2.164062 11.171875 -1.78125 C 10.410156 -1.394531 9.613281 -1.085938 8.78125 -0.859375 C 7.945312 -0.640625 7.132812 -0.488281 6.34375 -0.40625 C 5.5625 -0.320312 4.84375 -0.304688 4.1875 -0.359375 C 3.539062 -0.421875 3.019531 -0.53125 2.625 -0.6875 C 2.238281 -0.832031 1.984375 -1.007812 1.859375 -1.21875 C 1.742188 -1.425781 1.675781 -1.613281 1.65625 -1.78125 C 1.65625 -1.800781 1.640625 -1.804688 1.609375 -1.796875 C 1.585938 -1.796875 1.5625 -1.78125 1.53125 -1.75 C 1.007812 -1.238281 0.546875 -0.679688 0.140625 -0.078125 C 0.015625 0.0859375 -0.148438 0.132812 -0.359375 0.0625 C -0.554688 -0.0078125 -0.644531 -0.15625 -0.625 -0.375 C -0.519531 -1.539062 -0.394531 -2.726562 -0.25 -3.9375 C -0.101562 -5.144531 0.0664062 -6.300781 0.265625 -7.40625 C 0.472656 -8.519531 0.710938 -9.523438 0.984375 -10.421875 C 1.265625 -11.316406 1.585938 -12.046875 1.953125 -12.609375 C 2.328125 -13.179688 2.757812 -13.523438 3.25 -13.640625 C 3.457031 -13.734375 3.675781 -13.75 3.90625 -13.6875 C 4.132812 -13.625 4.328125 -13.503906 4.484375 -13.328125 C 4.660156 -13.066406 4.71875 -12.691406 4.65625 -12.203125 C 4.601562 -11.710938 4.457031 -11.148438 4.21875 -10.515625 C 3.988281 -9.890625 3.707031 -9.234375 3.375 -8.546875 C 3.050781 -7.867188 2.710938 -7.203125 2.359375 -6.546875 C 2.003906 -5.890625 1.664062 -5.296875 1.34375 -4.765625 C 1.019531 -4.234375 0.765625 -3.804688 0.578125 -3.484375 C 0.554688 -3.460938 0.546875 -3.453125 0.546875 -3.453125 C 0.503906 -3.097656 0.460938 -2.738281 0.421875 -2.375 C 0.410156 -2.257812 0.453125 -2.179688 0.546875 -2.140625 C 0.640625 -2.085938 0.722656 -2.101562 0.796875 -2.1875 C 1.453125 -2.832031 2.070312 -3.328125 2.65625 -3.671875 C 3.25 -4.023438 3.765625 -4.257812 4.203125 -4.375 C 4.648438 -4.5 4.960938 -4.535156 5.140625 -4.484375 C 5.347656 -4.398438 5.453125 -4.242188 5.453125 -4.015625 C 5.441406 -3.835938 5.351562 -3.707031 5.1875 -3.625 C 5.03125 -3.539062 4.859375 -3.476562 4.671875 -3.4375 C 3.816406 -3.019531 3.242188 -2.671875 2.953125 -2.390625 C 2.660156 -2.109375 2.515625 -1.914062 2.515625 -1.8125 C 2.515625 -1.6875 2.65625 -1.566406 2.9375 -1.453125 C 3.28125 -1.316406 3.75 -1.226562 4.34375 -1.1875 C 4.945312 -1.144531 5.609375 -1.160156 6.328125 -1.234375 C 7.054688 -1.316406 7.804688 -1.460938 8.578125 -1.671875 C 9.347656 -1.878906 10.082031 -2.160156 10.78125 -2.515625 C 11.476562 -2.867188 12.09375 -3.300781 12.625 -3.8125 C 12.707031 -3.894531 12.804688 -3.929688 12.921875 -3.921875 C 13.046875 -3.921875 13.144531 -3.878906 13.21875 -3.796875 Z M 3.4375 -12.828125 C 3.257812 -12.785156 3.070312 -12.65625 2.875 -12.4375 C 2.675781 -12.226562 2.46875 -11.890625 2.25 -11.421875 C 2.039062 -10.960938 1.832031 -10.34375 1.625 -9.5625 C 1.414062 -8.789062 1.210938 -7.816406 1.015625 -6.640625 C 0.984375 -6.535156 1.023438 -6.460938 1.140625 -6.421875 C 1.242188 -6.390625 1.320312 -6.421875 1.375 -6.515625 C 2.019531 -7.648438 2.535156 -8.664062 2.921875 -9.5625 C 3.316406 -10.457031 3.585938 -11.1875 3.734375 -11.75 C 3.890625 -12.320312 3.914062 -12.679688 3.8125 -12.828125 C 3.789062 -12.847656 3.75 -12.859375 3.6875 -12.859375 C 3.59375 -12.859375 3.507812 -12.847656 3.4375 -12.828125 Z M 3.4375 -12.828125 "/></g></g><g style="fill:#967f71;fill-opacity:1;"><g transform="translate(203.014162, 225.517118)"><path style="stroke:none" d="M 13.375 -3.890625 C 13.445312 -3.804688 13.484375 -3.703125 13.484375 -3.578125 C 13.472656 -3.460938 13.425781 -3.367188 13.34375 -3.296875 C 13.3125 -3.265625 13.15625 -3.128906 12.875 -2.890625 C 12.59375 -2.660156 12.21875 -2.382812 11.75 -2.0625 C 11.289062 -1.738281 10.769531 -1.425781 10.1875 -1.125 C 9.601562 -0.820312 8.988281 -0.578125 8.34375 -0.390625 C 7.695312 -0.210938 7.050781 -0.144531 6.40625 -0.1875 C 5.757812 -0.226562 5.144531 -0.441406 4.5625 -0.828125 C 4.113281 -1.117188 3.753906 -1.492188 3.484375 -1.953125 C 3.410156 -2.078125 3.296875 -2.144531 3.140625 -2.15625 C 2.984375 -2.164062 2.863281 -2.109375 2.78125 -1.984375 C 2.550781 -1.628906 2.296875 -1.296875 2.015625 -0.984375 C 1.734375 -0.671875 1.445312 -0.414062 1.15625 -0.21875 C 0.875 -0.03125 0.601562 0.0664062 0.34375 0.078125 L 0.3125 0.078125 C 0.125 0.0664062 -0.0507812 0.0078125 -0.21875 -0.09375 C -0.382812 -0.207031 -0.503906 -0.359375 -0.578125 -0.546875 C -0.898438 -1.347656 -0.851562 -2.125 -0.4375 -2.875 C -0.0820312 -3.613281 0.410156 -4.238281 1.046875 -4.75 C 1.679688 -5.269531 2.398438 -5.628906 3.203125 -5.828125 C 3.359375 -5.867188 3.488281 -5.832031 3.59375 -5.71875 C 3.71875 -5.59375 3.757812 -5.453125 3.71875 -5.296875 C 3.65625 -5.148438 3.546875 -5.054688 3.390625 -5.015625 C 2.722656 -4.847656 2.117188 -4.546875 1.578125 -4.109375 C 1.046875 -3.679688 0.632812 -3.15625 0.34375 -2.53125 C 0.0390625 -2.019531 -0.015625 -1.484375 0.171875 -0.921875 C 0.234375 -0.816406 0.28125 -0.765625 0.3125 -0.765625 C 0.414062 -0.703125 0.5625 -0.769531 0.75 -0.96875 C 0.945312 -1.164062 1.164062 -1.445312 1.40625 -1.8125 C 1.65625 -2.175781 1.898438 -2.570312 2.140625 -3 C 2.378906 -3.4375 2.59375 -3.863281 2.78125 -4.28125 C 2.863281 -4.476562 3.015625 -4.5625 3.234375 -4.53125 C 3.429688 -4.5 3.546875 -4.378906 3.578125 -4.171875 C 3.578125 -4.160156 3.597656 -4.054688 3.640625 -3.859375 C 3.691406 -3.660156 3.769531 -3.414062 3.875 -3.125 C 3.976562 -2.84375 4.125 -2.554688 4.3125 -2.265625 C 4.5 -1.972656 4.738281 -1.726562 5.03125 -1.53125 C 5.519531 -1.207031 6.046875 -1.035156 6.609375 -1.015625 C 7.179688 -0.992188 7.753906 -1.078125 8.328125 -1.265625 C 8.910156 -1.453125 9.460938 -1.6875 9.984375 -1.96875 C 10.515625 -2.257812 10.988281 -2.550781 11.40625 -2.84375 C 11.820312 -3.144531 12.148438 -3.394531 12.390625 -3.59375 C 12.640625 -3.800781 12.769531 -3.910156 12.78125 -3.921875 C 12.863281 -3.992188 12.960938 -4.023438 13.078125 -4.015625 C 13.203125 -4.015625 13.300781 -3.972656 13.375 -3.890625 Z M 13.375 -3.890625 "/></g></g><g style="fill:#967f71;fill-opacity:1;"><g transform="translate(215.939061, 225.517118)"><path style="stroke:none" d=""/></g></g><g style="fill:#967f71;fill-opacity:1;"><g transform="translate(221.889634, 225.517118)"><path style="stroke:none" d="M 2.28125 -0.859375 C 2.007812 -0.628906 1.789062 -0.453125 1.625 -0.328125 C 1.46875 -0.210938 1.335938 -0.15625 1.234375 -0.15625 C 1.117188 -0.15625 1.019531 -0.195312 0.9375 -0.28125 C 0.78125 -0.4375 0.742188 -0.601562 0.828125 -0.78125 C 0.910156 -0.957031 1.039062 -1.164062 1.21875 -1.40625 C 1.375 -1.632812 1.660156 -1.960938 2.078125 -2.390625 C 2.503906 -2.816406 3.019531 -3.316406 3.625 -3.890625 C 4.226562 -4.460938 4.894531 -5.078125 5.625 -5.734375 C 6.351562 -6.398438 7.109375 -7.085938 7.890625 -7.796875 C 8.460938 -8.328125 9.066406 -8.878906 9.703125 -9.453125 C 10.335938 -10.023438 10.960938 -10.597656 11.578125 -11.171875 C 12.191406 -11.742188 12.765625 -12.28125 13.296875 -12.78125 C 13.828125 -13.289062 14.28125 -13.742188 14.65625 -14.140625 C 14.78125 -14.273438 14.800781 -14.421875 14.71875 -14.578125 C 14.644531 -14.722656 14.519531 -14.785156 14.34375 -14.765625 C 12.71875 -14.566406 11.273438 -14.3125 10.015625 -14 C 8.765625 -13.695312 7.753906 -13.363281 6.984375 -13 C 6.210938 -12.632812 5.734375 -12.25 5.546875 -11.84375 C 5.378906 -11.445312 5.445312 -11.09375 5.75 -10.78125 C 5.8125 -10.6875 5.832031 -10.582031 5.8125 -10.46875 C 5.800781 -10.351562 5.742188 -10.257812 5.640625 -10.1875 C 5.546875 -10.125 5.441406 -10.101562 5.328125 -10.125 C 5.210938 -10.144531 5.125 -10.203125 5.0625 -10.296875 C 4.832031 -10.566406 4.691406 -10.875 4.640625 -11.21875 C 4.597656 -11.5625 4.644531 -11.882812 4.78125 -12.1875 C 5 -12.644531 5.394531 -13.050781 5.96875 -13.40625 C 6.550781 -13.757812 7.25 -14.066406 8.0625 -14.328125 C 8.882812 -14.597656 9.753906 -14.828125 10.671875 -15.015625 C 11.585938 -15.210938 12.492188 -15.375 13.390625 -15.5 C 14.296875 -15.625 15.117188 -15.722656 15.859375 -15.796875 C 16.117188 -15.835938 16.3125 -15.734375 16.4375 -15.484375 C 16.488281 -15.367188 16.476562 -15.21875 16.40625 -15.03125 C 16.34375 -14.851562 16.171875 -14.597656 15.890625 -14.265625 C 15.609375 -13.929688 15.171875 -13.46875 14.578125 -12.875 C 13.984375 -12.289062 13.1875 -11.535156 12.1875 -10.609375 C 11.1875 -9.679688 9.941406 -8.535156 8.453125 -7.171875 C 7.984375 -6.753906 7.519531 -6.335938 7.0625 -5.921875 C 6.601562 -5.503906 6.160156 -5.09375 5.734375 -4.6875 C 5.523438 -4.507812 5.457031 -4.378906 5.53125 -4.296875 C 5.601562 -4.222656 5.882812 -4.257812 6.375 -4.40625 C 6.832031 -4.53125 7.304688 -4.523438 7.796875 -4.390625 C 8.285156 -4.253906 8.773438 -4.050781 9.265625 -3.78125 C 9.765625 -3.507812 10.253906 -3.226562 10.734375 -2.9375 C 11.191406 -2.664062 11.640625 -2.410156 12.078125 -2.171875 C 12.523438 -1.941406 12.941406 -1.773438 13.328125 -1.671875 C 13.722656 -1.578125 14.082031 -1.609375 14.40625 -1.765625 C 14.507812 -1.804688 14.613281 -1.804688 14.71875 -1.765625 C 14.820312 -1.722656 14.894531 -1.644531 14.9375 -1.53125 C 15 -1.4375 15.003906 -1.332031 14.953125 -1.21875 C 14.910156 -1.113281 14.835938 -1.035156 14.734375 -0.984375 C 14.285156 -0.785156 13.816406 -0.734375 13.328125 -0.828125 C 12.835938 -0.921875 12.335938 -1.101562 11.828125 -1.375 C 11.316406 -1.644531 10.804688 -1.925781 10.296875 -2.21875 C 9.859375 -2.476562 9.421875 -2.726562 8.984375 -2.96875 C 8.554688 -3.207031 8.132812 -3.390625 7.71875 -3.515625 C 7.300781 -3.640625 6.910156 -3.65625 6.546875 -3.5625 C 6.191406 -3.488281 5.816406 -3.347656 5.421875 -3.140625 C 5.035156 -2.929688 4.648438 -2.691406 4.265625 -2.421875 C 3.878906 -2.148438 3.515625 -1.875 3.171875 -1.59375 C 2.828125 -1.320312 2.53125 -1.078125 2.28125 -0.859375 Z M 2.28125 -0.859375 "/></g></g><g style="fill:#967f71;fill-opacity:1;"><g transform="translate(237.597862, 225.517118)"><path style="stroke:none" d="M 10.375 -4.3125 C 10.457031 -4.238281 10.5 -4.144531 10.5 -4.03125 C 10.5 -3.914062 10.460938 -3.816406 10.390625 -3.734375 C 10.335938 -3.703125 10.171875 -3.550781 9.890625 -3.28125 C 9.609375 -3.007812 9.234375 -2.691406 8.765625 -2.328125 C 8.304688 -1.960938 7.773438 -1.597656 7.171875 -1.234375 C 6.578125 -0.867188 5.941406 -0.566406 5.265625 -0.328125 C 4.585938 -0.0859375 3.910156 0.03125 3.234375 0.03125 C 2.253906 0.0390625 1.375 -0.242188 0.59375 -0.828125 C 0.269531 -1.066406 0.0507812 -1.34375 -0.0625 -1.65625 C -0.175781 -1.976562 -0.222656 -2.3125 -0.203125 -2.65625 C -0.191406 -3 -0.144531 -3.316406 -0.0625 -3.609375 C 0.0195312 -3.910156 0.0976562 -4.15625 0.171875 -4.34375 C 0.253906 -4.539062 0.300781 -4.648438 0.3125 -4.671875 C 0.382812 -4.765625 0.472656 -4.828125 0.578125 -4.859375 C 0.679688 -4.890625 0.78125 -4.878906 0.875 -4.828125 C 0.988281 -4.773438 1.0625 -4.695312 1.09375 -4.59375 C 1.132812 -4.488281 1.128906 -4.382812 1.078125 -4.28125 C 1.078125 -4.269531 1.039062 -4.195312 0.96875 -4.0625 C 0.90625 -3.925781 0.835938 -3.742188 0.765625 -3.515625 C 0.703125 -3.296875 0.65625 -3.0625 0.625 -2.8125 C 0.601562 -2.5625 0.625 -2.316406 0.6875 -2.078125 C 0.75 -1.847656 0.882812 -1.65625 1.09375 -1.5 C 1.582031 -1.132812 2.097656 -0.914062 2.640625 -0.84375 C 3.191406 -0.769531 3.742188 -0.800781 4.296875 -0.9375 C 4.859375 -1.070312 5.40625 -1.269531 5.9375 -1.53125 C 6.46875 -1.789062 6.960938 -2.078125 7.421875 -2.390625 C 7.878906 -2.703125 8.285156 -3.003906 8.640625 -3.296875 C 8.992188 -3.585938 9.269531 -3.828125 9.46875 -4.015625 C 9.664062 -4.203125 9.769531 -4.300781 9.78125 -4.3125 C 9.863281 -4.40625 9.957031 -4.453125 10.0625 -4.453125 C 10.175781 -4.453125 10.28125 -4.40625 10.375 -4.3125 Z M 0.140625 -5.578125 C -0.0664062 -5.578125 -0.195312 -5.6875 -0.25 -5.90625 C -0.3125 -6.113281 -0.242188 -6.273438 -0.046875 -6.390625 C 0.253906 -6.535156 0.519531 -6.726562 0.75 -6.96875 C 0.832031 -7.0625 0.929688 -7.109375 1.046875 -7.109375 C 1.160156 -7.109375 1.257812 -7.066406 1.34375 -6.984375 C 1.425781 -6.898438 1.46875 -6.800781 1.46875 -6.6875 C 1.476562 -6.582031 1.441406 -6.488281 1.359375 -6.40625 C 1.054688 -6.09375 0.722656 -5.835938 0.359375 -5.640625 C 0.285156 -5.597656 0.210938 -5.578125 0.140625 -5.578125 Z M 0.140625 -5.578125 "/></g></g><g style="fill:#967f71;fill-opacity:1;"><g transform="translate(247.419501, 225.517118)"><path style="stroke:none" d="M 11.015625 -4.109375 C 11.097656 -4.023438 11.140625 -3.925781 11.140625 -3.8125 C 11.140625 -3.6875 11.097656 -3.582031 11.015625 -3.5 C 10.972656 -3.46875 10.8125 -3.320312 10.53125 -3.0625 C 10.25 -2.8125 9.878906 -2.507812 9.421875 -2.15625 C 8.960938 -1.800781 8.4375 -1.445312 7.84375 -1.09375 C 7.257812 -0.75 6.644531 -0.457031 6 -0.21875 C 5.363281 0.0078125 4.71875 0.125 4.0625 0.125 C 3.664062 0.125 3.28125 0.0703125 2.90625 -0.03125 C 2.21875 -0.238281 1.640625 -0.65625 1.171875 -1.28125 C 0.710938 -1.914062 0.375 -2.738281 0.15625 -3.75 C 0.132812 -3.800781 0.125 -3.851562 0.125 -3.90625 C 0.03125 -4.425781 -0.03125 -4.953125 -0.0625 -5.484375 C -0.09375 -6.179688 -0.078125 -6.90625 -0.015625 -7.65625 C 0.0351562 -8.414062 0.128906 -9.160156 0.265625 -9.890625 C 0.410156 -10.617188 0.59375 -11.296875 0.8125 -11.921875 C 1.03125 -12.546875 1.273438 -13.070312 1.546875 -13.5 C 1.816406 -13.925781 2.117188 -14.21875 2.453125 -14.375 C 2.671875 -14.46875 2.898438 -14.476562 3.140625 -14.40625 C 3.390625 -14.34375 3.59375 -14.21875 3.75 -14.03125 C 3.976562 -13.78125 4.097656 -13.421875 4.109375 -12.953125 C 4.128906 -12.492188 4.078125 -11.96875 3.953125 -11.375 C 3.828125 -10.78125 3.648438 -10.148438 3.421875 -9.484375 C 3.203125 -8.828125 2.957031 -8.175781 2.6875 -7.53125 C 2.414062 -6.894531 2.148438 -6.296875 1.890625 -5.734375 C 1.640625 -5.179688 1.425781 -4.722656 1.25 -4.359375 C 1.070312 -4.003906 1.039062 -3.644531 1.15625 -3.28125 C 1.3125 -2.726562 1.546875 -2.222656 1.859375 -1.765625 C 2.179688 -1.316406 2.613281 -1.003906 3.15625 -0.828125 C 3.65625 -0.679688 4.175781 -0.65625 4.71875 -0.75 C 5.269531 -0.84375 5.816406 -1.015625 6.359375 -1.265625 C 6.898438 -1.515625 7.410156 -1.796875 7.890625 -2.109375 C 8.378906 -2.429688 8.8125 -2.738281 9.1875 -3.03125 C 9.5625 -3.332031 9.859375 -3.582031 10.078125 -3.78125 C 10.296875 -3.988281 10.410156 -4.097656 10.421875 -4.109375 C 10.503906 -4.179688 10.601562 -4.21875 10.71875 -4.21875 C 10.820312 -4.21875 10.921875 -4.179688 11.015625 -4.109375 Z M 0.828125 -5.734375 C 0.835938 -5.648438 0.875 -5.59375 0.9375 -5.5625 C 1.007812 -5.539062 1.066406 -5.5625 1.109375 -5.625 C 1.242188 -5.851562 1.398438 -6.1875 1.578125 -6.625 C 1.765625 -7.0625 1.953125 -7.554688 2.140625 -8.109375 C 2.335938 -8.660156 2.515625 -9.222656 2.671875 -9.796875 C 2.828125 -10.378906 2.957031 -10.925781 3.0625 -11.4375 C 3.175781 -11.945312 3.242188 -12.382812 3.265625 -12.75 C 3.285156 -13.113281 3.242188 -13.347656 3.140625 -13.453125 C 3.035156 -13.554688 2.941406 -13.609375 2.859375 -13.609375 C 2.828125 -13.609375 2.796875 -13.601562 2.765625 -13.59375 C 2.609375 -13.519531 2.425781 -13.289062 2.21875 -12.90625 C 2.007812 -12.53125 1.800781 -12.046875 1.59375 -11.453125 C 1.394531 -10.867188 1.21875 -10.234375 1.0625 -9.546875 C 0.90625 -8.867188 0.800781 -8.195312 0.75 -7.53125 C 0.695312 -6.863281 0.722656 -6.265625 0.828125 -5.734375 Z M 0.828125 -5.734375 "/></g></g><g style="fill:#967f71;fill-opacity:1;"><g transform="translate(257.960974, 225.517118)"><path style="stroke:none" d="M 10.375 -4.3125 C 10.457031 -4.238281 10.5 -4.144531 10.5 -4.03125 C 10.5 -3.914062 10.460938 -3.816406 10.390625 -3.734375 C 10.335938 -3.703125 10.171875 -3.550781 9.890625 -3.28125 C 9.609375 -3.007812 9.234375 -2.691406 8.765625 -2.328125 C 8.304688 -1.960938 7.773438 -1.597656 7.171875 -1.234375 C 6.578125 -0.867188 5.941406 -0.566406 5.265625 -0.328125 C 4.585938 -0.0859375 3.910156 0.03125 3.234375 0.03125 C 2.253906 0.0390625 1.375 -0.242188 0.59375 -0.828125 C 0.269531 -1.066406 0.0507812 -1.34375 -0.0625 -1.65625 C -0.175781 -1.976562 -0.222656 -2.3125 -0.203125 -2.65625 C -0.191406 -3 -0.144531 -3.316406 -0.0625 -3.609375 C 0.0195312 -3.910156 0.0976562 -4.15625 0.171875 -4.34375 C 0.253906 -4.539062 0.300781 -4.648438 0.3125 -4.671875 C 0.382812 -4.765625 0.472656 -4.828125 0.578125 -4.859375 C 0.679688 -4.890625 0.78125 -4.878906 0.875 -4.828125 C 0.988281 -4.773438 1.0625 -4.695312 1.09375 -4.59375 C 1.132812 -4.488281 1.128906 -4.382812 1.078125 -4.28125 C 1.078125 -4.269531 1.039062 -4.195312 0.96875 -4.0625 C 0.90625 -3.925781 0.835938 -3.742188 0.765625 -3.515625 C 0.703125 -3.296875 0.65625 -3.0625 0.625 -2.8125 C 0.601562 -2.5625 0.625 -2.316406 0.6875 -2.078125 C 0.75 -1.847656 0.882812 -1.65625 1.09375 -1.5 C 1.582031 -1.132812 2.097656 -0.914062 2.640625 -0.84375 C 3.191406 -0.769531 3.742188 -0.800781 4.296875 -0.9375 C 4.859375 -1.070312 5.40625 -1.269531 5.9375 -1.53125 C 6.46875 -1.789062 6.960938 -2.078125 7.421875 -2.390625 C 7.878906 -2.703125 8.285156 -3.003906 8.640625 -3.296875 C 8.992188 -3.585938 9.269531 -3.828125 9.46875 -4.015625 C 9.664062 -4.203125 9.769531 -4.300781 9.78125 -4.3125 C 9.863281 -4.40625 9.957031 -4.453125 10.0625 -4.453125 C 10.175781 -4.453125 10.28125 -4.40625 10.375 -4.3125 Z M 0.140625 -5.578125 C -0.0664062 -5.578125 -0.195312 -5.6875 -0.25 -5.90625 C -0.3125 -6.113281 -0.242188 -6.273438 -0.046875 -6.390625 C 0.253906 -6.535156 0.519531 -6.726562 0.75 -6.96875 C 0.832031 -7.0625 0.929688 -7.109375 1.046875 -7.109375 C 1.160156 -7.109375 1.257812 -7.066406 1.34375 -6.984375 C 1.425781 -6.898438 1.46875 -6.800781 1.46875 -6.6875 C 1.476562 -6.582031 1.441406 -6.488281 1.359375 -6.40625 C 1.054688 -6.09375 0.722656 -5.835938 0.359375 -5.640625 C 0.285156 -5.597656 0.210938 -5.578125 0.140625 -5.578125 Z M 0.140625 -5.578125 "/></g></g><g style="fill:#967f71;fill-opacity:1;"><g transform="translate(267.782613, 225.517118)"><path style="stroke:none" d="M 15.796875 -4.234375 C 15.867188 -4.148438 15.90625 -4.050781 15.90625 -3.9375 C 15.894531 -3.820312 15.847656 -3.722656 15.765625 -3.640625 C 14.984375 -2.984375 14.128906 -2.460938 13.203125 -2.078125 C 12.273438 -1.703125 11.304688 -1.472656 10.296875 -1.390625 C 9.296875 -1.316406 8.296875 -1.394531 7.296875 -1.625 C 6.972656 -1.71875 6.65625 -1.828125 6.34375 -1.953125 C 6.175781 -2.035156 6.046875 -2.007812 5.953125 -1.875 C 5.878906 -1.789062 5.816406 -1.707031 5.765625 -1.625 C 5.710938 -1.539062 5.660156 -1.472656 5.609375 -1.421875 C 5.242188 -0.984375 4.90625 -0.675781 4.59375 -0.5 C 4.289062 -0.332031 4.023438 -0.25 3.796875 -0.25 C 3.566406 -0.25 3.375 -0.296875 3.21875 -0.390625 C 3.113281 -0.441406 3.019531 -0.515625 2.9375 -0.609375 C 2.8125 -0.722656 2.660156 -0.78125 2.484375 -0.78125 C 2.304688 -0.789062 2.15625 -0.738281 2.03125 -0.625 C 1.882812 -0.5 1.71875 -0.394531 1.53125 -0.3125 C 1.375 -0.238281 1.210938 -0.203125 1.046875 -0.203125 C 0.847656 -0.203125 0.664062 -0.25 0.5 -0.34375 C 0.15625 -0.5 -0.0703125 -0.765625 -0.1875 -1.140625 C -0.300781 -1.441406 -0.335938 -1.78125 -0.296875 -2.15625 C -0.253906 -2.539062 -0.175781 -2.910156 -0.0625 -3.265625 C 0.0390625 -3.628906 0.144531 -3.9375 0.25 -4.1875 C 0.363281 -4.445312 0.4375 -4.601562 0.46875 -4.65625 C 0.519531 -4.757812 0.597656 -4.828125 0.703125 -4.859375 C 0.804688 -4.898438 0.914062 -4.894531 1.03125 -4.84375 C 1.132812 -4.800781 1.203125 -4.722656 1.234375 -4.609375 C 1.273438 -4.503906 1.269531 -4.394531 1.21875 -4.28125 C 1.15625 -4.15625 1.070312 -3.96875 0.96875 -3.71875 C 0.875 -3.476562 0.785156 -3.21875 0.703125 -2.9375 C 0.628906 -2.65625 0.578125 -2.378906 0.546875 -2.109375 C 0.515625 -1.835938 0.53125 -1.601562 0.59375 -1.40625 C 0.632812 -1.257812 0.722656 -1.15625 0.859375 -1.09375 C 0.984375 -1.039062 1.101562 -1.039062 1.21875 -1.09375 C 1.425781 -1.1875 1.640625 -1.378906 1.859375 -1.671875 C 2.078125 -1.960938 2.273438 -2.289062 2.453125 -2.65625 C 2.640625 -3.019531 2.785156 -3.335938 2.890625 -3.609375 C 2.929688 -3.722656 3.003906 -3.800781 3.109375 -3.84375 C 3.210938 -3.894531 3.316406 -3.90625 3.421875 -3.875 C 3.535156 -3.832031 3.617188 -3.753906 3.671875 -3.640625 C 3.722656 -3.535156 3.726562 -3.429688 3.6875 -3.328125 C 3.59375 -3.066406 3.519531 -2.773438 3.46875 -2.453125 C 3.414062 -2.140625 3.394531 -1.859375 3.40625 -1.609375 C 3.414062 -1.359375 3.484375 -1.203125 3.609375 -1.140625 C 3.753906 -1.054688 3.957031 -1.101562 4.21875 -1.28125 C 4.539062 -1.5 4.816406 -1.757812 5.046875 -2.0625 C 5.253906 -2.320312 5.269531 -2.582031 5.09375 -2.84375 C 4.976562 -3 4.90625 -3.171875 4.875 -3.359375 C 4.8125 -3.953125 5.257812 -4.484375 6.21875 -4.953125 C 6.351562 -5.046875 6.492188 -5.078125 6.640625 -5.046875 C 6.785156 -5.023438 6.898438 -4.957031 6.984375 -4.84375 C 7.109375 -4.695312 7.148438 -4.5 7.109375 -4.25 C 7.066406 -4 6.984375 -3.726562 6.859375 -3.4375 C 6.773438 -3.25 6.78125 -3.054688 6.875 -2.859375 C 6.96875 -2.679688 7.113281 -2.566406 7.3125 -2.515625 C 7.375 -2.492188 7.4375 -2.476562 7.5 -2.46875 C 8.394531 -2.238281 9.296875 -2.160156 10.203125 -2.234375 C 11.117188 -2.304688 12 -2.507812 12.84375 -2.84375 C 13.695312 -3.1875 14.484375 -3.65625 15.203125 -4.25 C 15.285156 -4.34375 15.382812 -4.382812 15.5 -4.375 C 15.625 -4.375 15.722656 -4.328125 15.796875 -4.234375 Z M 5.84375 -3.25 C 5.957031 -3.476562 6.066406 -3.71875 6.171875 -3.96875 C 5.992188 -3.851562 5.875 -3.75 5.8125 -3.65625 C 5.75 -3.570312 5.722656 -3.503906 5.734375 -3.453125 C 5.742188 -3.367188 5.78125 -3.300781 5.84375 -3.25 Z M 5.84375 -3.25 "/></g></g><g style="fill:#967f71;fill-opacity:1;"><g transform="translate(282.978969, 225.517118)"><path style="stroke:none" d="M 13.890625 -4.5 C 13.972656 -4.425781 14.015625 -4.328125 14.015625 -4.203125 C 14.015625 -4.085938 13.976562 -3.988281 13.90625 -3.90625 C 13.5 -3.488281 13 -3.046875 12.40625 -2.578125 C 11.8125 -2.117188 11.164062 -1.679688 10.46875 -1.265625 C 9.769531 -0.859375 9.054688 -0.53125 8.328125 -0.28125 C 7.597656 -0.03125 6.898438 0.09375 6.234375 0.09375 L 6.203125 0.09375 C 5.273438 0.125 4.5 -0.191406 3.875 -0.859375 C 3.601562 -1.160156 3.441406 -1.507812 3.390625 -1.90625 C 3.367188 -2.050781 3.285156 -2.144531 3.140625 -2.1875 C 2.992188 -2.226562 2.867188 -2.195312 2.765625 -2.09375 C 2.441406 -1.75 2.101562 -1.445312 1.75 -1.1875 C 1.40625 -0.925781 1.0625 -0.75 0.71875 -0.65625 C 0.375 -0.5625 0.0625 -0.597656 -0.21875 -0.765625 C -0.5 -0.929688 -0.648438 -1.175781 -0.671875 -1.5 C -0.703125 -1.832031 -0.660156 -2.195312 -0.546875 -2.59375 C -0.429688 -2.988281 -0.285156 -3.367188 -0.109375 -3.734375 C 0.0664062 -4.097656 0.222656 -4.398438 0.359375 -4.640625 C 0.421875 -4.734375 0.503906 -4.789062 0.609375 -4.8125 C 0.710938 -4.84375 0.8125 -4.832031 0.90625 -4.78125 C 1.007812 -4.726562 1.078125 -4.648438 1.109375 -4.546875 C 1.140625 -4.441406 1.132812 -4.332031 1.09375 -4.21875 C 0.820312 -3.757812 0.609375 -3.332031 0.453125 -2.9375 C 0.296875 -2.539062 0.195312 -2.207031 0.15625 -1.9375 C 0.113281 -1.675781 0.128906 -1.523438 0.203125 -1.484375 C 0.347656 -1.398438 0.554688 -1.429688 0.828125 -1.578125 C 1.097656 -1.734375 1.398438 -1.96875 1.734375 -2.28125 C 2.078125 -2.59375 2.425781 -2.957031 2.78125 -3.375 C 3.132812 -3.800781 3.460938 -4.234375 3.765625 -4.671875 C 3.828125 -4.765625 3.90625 -4.820312 4 -4.84375 C 4.101562 -4.863281 4.203125 -4.851562 4.296875 -4.8125 C 4.398438 -4.757812 4.46875 -4.6875 4.5 -4.59375 C 4.539062 -4.5 4.546875 -4.398438 4.515625 -4.296875 C 4.460938 -4.160156 4.40625 -3.96875 4.34375 -3.71875 C 4.28125 -3.46875 4.234375 -3.195312 4.203125 -2.90625 C 4.171875 -2.613281 4.171875 -2.332031 4.203125 -2.0625 C 4.242188 -1.789062 4.335938 -1.578125 4.484375 -1.421875 C 4.960938 -0.941406 5.535156 -0.710938 6.203125 -0.734375 L 6.234375 -0.734375 C 6.835938 -0.734375 7.472656 -0.851562 8.140625 -1.09375 C 8.804688 -1.34375 9.460938 -1.660156 10.109375 -2.046875 C 10.765625 -2.429688 11.367188 -2.835938 11.921875 -3.265625 C 12.472656 -3.703125 12.925781 -4.109375 13.28125 -4.484375 C 13.363281 -4.566406 13.460938 -4.613281 13.578125 -4.625 C 13.703125 -4.625 13.804688 -4.582031 13.890625 -4.5 Z M 13.890625 -4.5 "/></g></g></g></svg>